<svg xmlns="http://www.w3.org/2000/svg" enable-background="new 0 0 60 60" viewBox="0 0 60 60" id="People"><path fill="none" stroke="#66b2b2" stroke-miterlimit="10" stroke-width="2" d="M50.563,58H59c0-6.229,0-8.236-3.113-10.12c-5.882-3.56-10.898-3.114-14.014-6.228c-1.033-1.034-1.223-2.123-1.09-3.057c1.447-1.31,2.734-3.082,3.79-5.039c1.374-0.726,2.934-2.66,3.465-5.025c0.224-0.99-0.164-1.936-0.737-2.661c0.041-0.229,0.078-0.457,0.112-0.681c0.586-4.021,0.429-10.007-3.981-10.007c-1.168-4.167-5.931-4.006-9.629-3.111" class="colorStroke3e3e3e svgStroke"></path><path fill="none" stroke="#66b2b2" stroke-miterlimit="10" stroke-width="2" d="M44.596,48.88c-5.882-3.56-10.898-3.114-14.014-6.228c-1.034-1.034-1.223-2.123-1.09-3.057c1.447-1.31,2.734-3.082,3.79-5.039c1.374-0.726,2.934-2.66,3.465-5.025c0.224-0.99-0.164-1.936-0.737-2.661c0.041-0.229,0.079-0.457,0.112-0.681c0.586-4.021,0.429-10.007-3.981-10.007c-1.816-6.487-12.348-2.484-14.014-1.557c-2.629,1.462-3.367,1.192-4.671,4.671c-0.779,2.076-0.81,3.874-0.838,6.735c-0.002,0.281,0.015,0.579,0.045,0.887c-0.553,0.718-0.918,1.643-0.701,2.612c0.527,2.349,2.07,4.275,3.438,5.009c0.864,1.494,1.888,2.913,3.009,4.1c0.1,1.105-0.014,2.666-1.062,4.012c-2.625,3.373-10.444,3.884-13.234,6.229C2.346,50.365,1.26,51.215,1,59h46.709C47.709,52.771,47.709,50.764,44.596,48.88z" class="colorStroke3e3e3e svgStroke"></path></svg>